<?xml version="1.0" encoding="UTF-8"?>
<svg id="Layer_1" data-name="Layer 1" xmlns="http://www.w3.org/2000/svg" viewBox="0 0 512 512">
  <defs>
    <style>
      .cls-1 {
        fill: #636363;
      }

      .cls-2 {
        fill: #ffce31;
      }
    </style>
  </defs>
  <path class="cls-1" d="M74.61,35.53h362.78c21.57,0,39.08,17.51,39.08,39.08v361.83c0,22.09-17.93,40.02-40.02,40.02H74.61c-21.57,0-39.08-17.51-39.08-39.08V74.61c0-21.57,17.51-39.08,39.08-39.08Z"/>
  <path d="M422.24,244.68c-1.7,2.87.14,18.23-.56,23.84-.59,4.69-3.09,19.15-4.17,23.14-1.79,6.61-17.41,33.44-16.96,35.35,1.34,5.71,20.5,5.88,16.98,23.16-3.33,16.35-41.78,81.63-54.18,94.14-15.49,15.64-20.08-.48-32.62-.65-4.34-.06-5.58,5.15-8.45,6.5-6.99,3.29-21.68-5.75-28.81-8.31-2.49-.9-7.04.13-8.03-.82-.72-.7.42-4.29-.45-5.17-.73-.74-5.55-.42-8.62-2.21-19.3-11.22-5.49-38.26,1.36-53.5,9.19-20.44,46.05-85.48,62.34-97.65,18.06-13.49,25.7,1.61,40.98,9.37l1.77,8.98c1.48,2.03,12.62-21.89,13.68-23.93.69-1.33,3.29-1.43,4.42-3.87,2.69-5.8,4.55-19.67,3.3-25.84-.82-4.05-4.33-5.25-5.31-8.33s-4.64-22.89-4.5-24.75c.09-1.22,4.05-1.08,3.98-1.97-.4-5.32-11.31-30.14-14.59-36.22-53.75-99.72-194.17-104.85-251.56-5.66-3.68,6.36-18.05,36.43-18.67,41.88-.11.96,4.05-.04,4.05,3.67,0,5.44-2.89,18.97-4.24,24.95-.33,1.46-3.32,1.47-3.65,2.91-.72,3.06-2,15.46-1.89,18.79.49,15.97,12.7,22,17.45,36.38,3.04.15,2.09-3.74,5.01-5.69,2.34-1.56,5.97-1.19,8.05-2.69,6.24-4.51,5.51-11.8,19.62-12.61,17.09-.98,38.59,36.17,46.93,49.65,12.5,20.2,37.92,63.61,40.95,86,1.74,12.83-7.59,16.24-15.74,21.87-2.01,1.39-2.34,5.04-4.62,5.76-3.5,1.1-8.21-2.16-8.5-1.83-.33.39.33,4.1-.96,5.84-1.64,2.22-21.54,6.53-25.3,5.92-6.49-1.04-6.13-7.68-8.16-8.01-8.74-1.43-20.88,17.31-34.75,2-12.61-13.92-49.17-77.79-52.94-95.38s17.52-16.77,18.12-24.47c.36-4.7-17.55-22.35-18.46-31.54-.37-3.74,3.35-8.33,3.42-13.33s-2.88-12.32-3.68-17.82c-.72-4.97,1.34-14.87-2.14-17.37s-10,.7-11.69-7.82c-2.45-12.32,8.86-51.21,13.57-64.36,46.4-129.68,224.75-153.75,303.25-39.8,13.65,19.82,38.88,83.57,32,105.8-1.33,4.29-6.29,4.35-7.04,5.62Z"/>
  <polygon class="cls-2" points="293.58 168.88 266.42 176.32 248.19 168.88 218.42 271.94 249.83 271.94 222.33 348.88 289.67 245.83 249.14 245.83 293.58 168.88"/>
</svg>